<svg xmlns="http://www.w3.org/2000/svg" viewBox="0 0 900 460" role="img" aria-label="足球场界面插画">
  <defs>
    <linearGradient id="sky" x1="0" x2="1" y1="0" y2="1">
      <stop offset="0" stop-color="#0c2f1e"/>
      <stop offset=".48" stop-color="#07150d"/>
      <stop offset="1" stop-color="#2b2712"/>
    </linearGradient>
    <linearGradient id="kit" x1="0" x2="1">
      <stop offset="0" stop-color="#a6e55c"/>
      <stop offset=".55" stop-color="#f2cc45"/>
      <stop offset="1" stop-color="#56b5ff"/>
    </linearGradient>
    <filter id="light" x="-40%" y="-40%" width="180%" height="180%">
      <feGaussianBlur stdDeviation="8" result="blur"/>
      <feColorMatrix in="blur" values="0 0 0 0 .65 0 0 0 0 .9 0 0 0 0 .36 0 0 0 .58 0"/>
      <feBlend in="SourceGraphic"/>
    </filter>
  </defs>
  <rect width="900" height="460" rx="34" fill="url(#sky)"/>
  <path d="M0 292c155-51 290-56 450-10s287 44 450-8v186H0Z" fill="#0b2918"/>
  <path d="M83 346c245-62 485-62 734 0" fill="none" stroke="#e8ff74" stroke-opacity=".28" stroke-width="5"/>
  <path d="M248 460c37-70 82-110 202-110s165 40 202 110" fill="none" stroke="#f7f1e6" stroke-opacity=".22" stroke-width="5"/>
  <ellipse cx="450" cy="396" rx="92" ry="34" fill="none" stroke="#f7f1e6" stroke-opacity=".24" stroke-width="5"/>
  <g stroke="#f7f1e6" stroke-opacity=".1">
    <path d="M72 108h756M58 147h784M44 186h812"/>
    <path d="M106 101v124M184 96v125M262 93v128M340 90v132M418 88v135M496 88v135M574 90v132M652 93v128M730 96v125M808 101v124"/>
  </g>
  <g filter="url(#light)">
    <path d="M132 76 68 218" stroke="#f2cc45" stroke-opacity=".42" stroke-width="18" stroke-linecap="round"/>
    <path d="M768 76 832 218" stroke="#56b5ff" stroke-opacity=".42" stroke-width="18" stroke-linecap="round"/>
    <rect x="97" y="58" width="74" height="20" rx="10" fill="#f2cc45"/>
    <rect x="729" y="58" width="74" height="20" rx="10" fill="#56b5ff"/>
  </g>
  <g transform="translate(450 220)">
    <path d="M-108 140h216l34 70H-142Z" fill="#102318" stroke="#f7f1e6" stroke-opacity=".18" stroke-width="3"/>
    <path d="M-78 72c0-70 35-112 78-112s78 42 78 112v36H-78Z" fill="#12281b" stroke="#f7f1e6" stroke-opacity=".2" stroke-width="3"/>
    <path d="M-48 84V7c0-30 20-50 48-50s48 20 48 50v77Z" fill="url(#kit)"/>
    <circle cx="0" cy="-66" r="38" fill="#f2cc45"/>
    <path d="M-42 46c28 18 56 18 84 0" fill="none" stroke="#07150d" stroke-opacity=".58" stroke-width="8" stroke-linecap="round"/>
    <circle cx="74" cy="125" r="38" fill="#f7f1e6"/>
    <path d="M74 87v76M36 125h76M50 99l48 52M98 99l-48 52" stroke="#07150d" stroke-opacity=".72" stroke-width="5"/>
  </g>
  <g fill="none" stroke-linecap="round">
    <path d="M175 286c68-46 142-54 220-24" stroke="#a6e55c" stroke-opacity=".48" stroke-width="8"/>
    <path d="M528 268c68-31 128-28 201 10" stroke="#56b5ff" stroke-opacity=".45" stroke-width="8"/>
  </g>
</svg>
